<svg width="512" height="512" viewBox="0 0 512 512" xmlns="http://www.w3.org/2000/svg">
  <rect width="512" height="512" fill="#1e40af" rx="64"/>
  <path d="M256 128C185.3 128 128 185.3 128 256C128 326.7 185.3 384 256 384C326.7 384 384 326.7 384 256C384 185.3 326.7 128 256 128ZM256 352C206.1 352 160 305.9 160 256C160 206.1 206.1 160 256 160C305.9 160 352 206.1 352 256C352 305.9 305.9 352 256 352Z" fill="white"/>
  <path d="M224 192H288V320H224V192Z" fill="white"/>
  <path d="M192 224H320V288H192V224Z" fill="white"/>
</svg>
